<svg width="32" height="32" viewBox="0 0 32 32" xmlns="http://www.w3.org/2000/svg">
  <defs>
    <linearGradient id="cloudGradient" x1="0%" y1="0%" x2="100%" y2="100%">
      <stop offset="0%" style="stop-color:#1e3a5f;stop-opacity:1" />
      <stop offset="100%" style="stop-color:#b87333;stop-opacity:1" />
    </linearGradient>
  </defs>
  
  <!-- Cloud shape -->
  <path d="M25.5 13.5C25.5 11.015 23.485 9 21 9c-.385 0-.755.054-1.107.147C19.409 6.214 16.885 4 13.875 4 10.494 4 7.75 6.744 7.75 10.125c0 .366.037.723.102 1.07C5.605 11.723 4 13.656 4 16c0 2.761 2.239 5 5 5h16c2.209 0 4-1.791 4-4s-1.791-4-4-4c-.176 0-.347.015-.516.04.011-.178.016-.358.016-.54z" fill="url(#cloudGradient)" opacity="0.9"/>
  
  <!-- AI sparkles -->
  <circle cx="16" cy="15" r="1.5" fill="#b87333"/>
  <path d="M16 11v2m0 4v2m-4-4h2m4 0h2" stroke="#b87333" stroke-width="1.5" stroke-linecap="round"/>
  
  <!-- Small accent dots -->
  <circle cx="10" cy="12" r="0.5" fill="#1e3a5f"/>
  <circle cx="22" cy="16" r="0.5" fill="#1e3a5f"/>
</svg>